<?xml version="1.0" encoding="UTF-8"?>
<svg version="1.1" viewBox="0 0 3000 2500" xmlns="http://www.w3.org/2000/svg">
 <g transform="translate(0 1447.6)">
  <path transform="translate(0 -1447.6)" d="m505.6 390.6c-42.093 0-75.982 33.157-75.982 74.34v1359.9c0 39.163-5.5221 71.064 30.133 74.1h-249.71c-29.552 0-14.438 23.027-14.438 51.629v34.418c0 28.602 23.79 51.629 53.342 51.629h2587.1c29.552 0 53.344-23.027 53.344-51.629v-34.418c0-28.602 15.112-51.629-14.439-51.629h-249.71c35.655-3.0359 30.133-34.937 30.133-74.1v-1359.9c0-41.183-33.889-74.34-75.982-74.34h-2073.8zm656.45 18.029c10.802 0 19.559 8.5686 19.559 19.137 0 10.568-8.7569 19.135-19.559 19.135-10.802 0-19.559-8.5666-19.559-19.135s8.7569-19.137 19.559-19.137zm-658.3 56.453h2077.5v1359.6h-2077.5v-1359.6zm701.01 1434.1h675.48c-1.0085 14.395-11.023 25.633-23.32 25.633h-628.84c-12.298 0-22.312-11.238-23.32-25.633zm1371.5 40.723c15.908 0 28.805 12.482 28.805 27.879-1e-4 15.397-12.897 27.879-28.805 27.879-15.908-1e-4 -28.805-12.482-28.805-27.879 1e-4 -15.397 12.897-27.879 28.805-27.879zm90.848 0c15.908 0 28.804 12.482 28.805 27.879-1e-4 15.397-12.896 27.879-28.805 27.879-15.908-1e-4 -28.803-12.482-28.803-27.879s12.895-27.879 28.803-27.879zm90.85 0c15.908 0 28.803 12.482 28.803 27.879-1e-4 15.397-12.895 27.879-28.803 27.879-15.908-1e-4 -28.805-12.482-28.805-27.879 1e-4 -15.397 12.897-27.879 28.805-27.879zm-2447.4 18.465h151.14c7.388 0 13.336 4.1989 13.336 9.4141 0 5.2151-5.948 9.414-13.336 9.414h-151.14c-7.388 0-13.336-4.1989-13.336-9.414 0-5.2152 5.948-9.4141 13.336-9.4141z" fill="#1a1a1a"/>
 </g>
</svg>
