<?xml version="1.0" encoding="UTF-8"?>
<svg version="1.1" viewBox="0 0 500 500" xmlns="http://www.w3.org/2000/svg">
 <g transform="translate(0 -552.36)">
  <rect y="552.36" width="500" height="500" fill-opacity="0"/>
  <g transform="matrix(1.1974 0 0 1.1974 -95.185 -154.13)">
   <g transform="matrix(0 -.55235 .55235 0 99.37 938.33)">
    <g transform="translate(0 -552.36)">
     <path d="m233.02 587.81c-8.31 2e-5 -15 6.69-15 15v300.56l-72.657-72.683c-2.9375-2.9385-6.7595-4.4062-10.594-4.4062s-7.6557 1.4682-10.594 4.4062l-24 24c-5.8761 5.8761-5.8761 15.343 0 21.219l100.5 100.5 16.094 16.125c0.0314 0.031 0.0627 0.062 0.0937 0.094 0.0311 0.031 0.0619 0.063 0.0937 0.094l16.5 16.5s7.5805 7.7035 16.531 7.7035c8.8715 0 16.594-7.7973 16.594-7.7973l16.625-16.594 116.62-116.62c5.8761-5.8761 5.8761-15.343 0-21.219l-24-24c-5.8761-5.8761-15.311-5.8761-21.188 0l-72.683 72.683v-300.56c0-8.31-6.69-15-15-15z" fill="#FFFFFF"/>
    </g>
   </g>
   <path transform="translate(0 552.36)" d="m283.19 87.562c-15.264 0-27.531 12.298-27.531 27.562v7.75h152.56c7.8141 0 14.094 6.3109 14.094 14.125v218.94c0 7.8141-6.2796 14.125-14.094 14.125h-152.56v7.75c0 15.264 12.267 27.562 27.531 27.562h146.88c15.264 0 27.562-12.298 27.562-27.562v-262.69c0-15.264-12.298-27.562-27.562-27.562h-146.88z" color="#000000" fill="#FFFFFF"/>
  </g>
 </g>
</svg>
