<?xml version="1.0" encoding="UTF-8"?>
<svg viewBox="0 0 640 480" xmlns="http://www.w3.org/2000/svg" xmlns:xlink="http://www.w3.org/1999/xlink">
 <defs>
  <linearGradient id="l" x1="-1.4444" x2="-.44444" y1="-.055556" y2="-.055556" gradientTransform="matrix(-1 0 0 -1.7143 38 111.29)" xlink:href="#a"/>
  <linearGradient id="k" x1="-.44444" x2="-1.4444" y1="2.2188" y2="2.2188" gradientTransform="matrix(1 0 0 1.5238 13 -42.81)" xlink:href="#a"/>
  <linearGradient id="e" x1="1" x2="0" y1="1.0909" y2="1.0909" gradientTransform="translate(0 -4)" xlink:href="#a"/>
  <linearGradient id="j" x1="1" x2="0" y1=".14286" y2=".14286" gradientTransform="matrix(-1 0 0 -1 25 87)" xlink:href="#d"/>
  <linearGradient id="i" y1=".38095" y2=".38095" gradientTransform="translate(0 -4)" xlink:href="#d"/>
  <linearGradient id="f" x1="1" x2=".40635" y1="1.2667" y2="1.2667" gradientTransform="translate(0 -4)" xlink:href="#b"/>
  <linearGradient id="h" x1="2.8889" x2="1.8889" y1=".64516" y2=".64516" gradientTransform="translate(-17 11)" xlink:href="#c"/>
  <linearGradient id="g" y1=".17391" y2=".17391" gradientTransform="translate(0 -4)">
   <stop stop-color="#729fcf" offset="0"/>
   <stop stop-color="#204a87" offset="1"/>
  </linearGradient>
  <linearGradient id="m" x1="-1.6667" x2="-2.8889" y1="1.7308" y2="1.7308" gradientTransform="matrix(1 0 0 1.2381 26 -20.095)" xlink:href="#c"/>
  <linearGradient id="d">
   <stop stop-color="#729fcf" offset="0"/>
   <stop stop-color="#204a87" offset="1"/>
  </linearGradient>
  <linearGradient id="n" x1="-3.1111" x2="-1.8889" y1="-.46154" y2="-.46154" gradientTransform="matrix(-1 0 0 -1.2381 51 95.095)" xlink:href="#c"/>
  <linearGradient id="a">
   <stop stop-color="#4e9a06" offset="0"/>
   <stop stop-color="#8ae234" offset="1"/>
  </linearGradient>
  <linearGradient id="b">
   <stop stop-color="#c91414" offset="0"/>
   <stop stop-color="#ef2929" offset="1"/>
  </linearGradient>
  <linearGradient id="o" x1="-4.3333" x2="-4" y1="-1.7143" y2="-1.7143" gradientTransform="matrix(-1 0 0 -.66667 64 75.667)" xlink:href="#b"/>
  <linearGradient id="c">
   <stop stop-color="#f57900" offset="0"/>
   <stop stop-color="#fcaf3e" offset="1"/>
  </linearGradient>
  <linearGradient id="p" x1="-3.3333" x2="-4.3333" y1=".92857" y2=".92857" gradientTransform="matrix(1 0 0 .66667 39 15.333)" xlink:href="#b"/>
 </defs>
 <rect x="110.03" y="40.802" width="46.3" height="0" fill="#427bc3"/>
 <path d="m32.867 147.53s0-11.472 14.331-11.472h71.655c14.331 0 14.331 11.472 14.331 11.472v142.17h-100.32v-142.17z" fill="#204a87"/>
 <path d="m333.82 197.93s0-11.472 14.331-11.472h71.655c14.331 0 14.331 11.472 14.331 11.472v91.778h-100.32v-91.778z" fill="#c00"/>
 <path d="m133.18 18.472s0-11.472 14.331-11.472h71.655c14.331 0 14.331 11.472 14.331 11.472v271.24h-100.32v-271.24z" fill="#4e9a06"/>
 <path d="m149.62 21.292h69.45v270.42h-69.45v-270.42z" fill="url(#e)"/>
 <path d="m233.5 98.368s0-11.472 14.331-11.472h71.655c14.331 0 14.331 11.472 14.331 11.472v191.34h-100.32v-191.34z" fill="#f57900"/>
 <path d="m248.93 99.188h69.45v190.52h-69.45v-190.52z" fill="#fcaf3e"/>
 <path d="m349.25 197.52h69.45v92.188h-69.45v-92.188z" fill="url(#f)"/>
 <path d="m48.3 148.35h69.45v141.35h-69.45v-141.35z" fill="url(#g)"/>
 <path d="m9.7167 289.71h447.57c4.2751 0 7.7167 2.741 7.7167 6.1458s-3.4416 6.1458-7.7167 6.1458h-447.57c-4.275 0-7.7167-2.741-7.7167-6.1458s3.4416-6.1458 7.7167-6.1458z" fill="#555753"/>
 <path d="m248.93 99.188h69.45v190.52h-69.45v-190.52z" fill="url(#h)"/>
 <path d="m48.3 148.35v20.358c1.4561-0.30926 2.9579-0.51584 4.5818-0.38412 6.3671 0.72748 11.324 4.4076 15.192 8.2585 5.7133 6.3218 11.87 12.353 18.809 17.861 8.9933 7.2919 19.328 13.87 30.867 18.438v-64.531h-69.45z" fill="url(#i)"/>
 <path d="m117.75 289.71v-20.358c-1.4561 0.30924-2.9579 0.51581-4.5818 0.38409-6.3671-0.72748-11.324-4.4075-15.192-8.2584-5.7133-6.3218-11.87-12.353-18.809-17.861-8.9933-7.2919-19.328-13.87-30.867-18.438v64.531h69.45z" fill="url(#j)"/>
 <path d="m148.62 19.292v31.022c1.4561-0.4712 2.9579-0.78605 4.5818-0.58533 6.3671 1.1086 11.324 6.7163 15.192 12.584 5.7134 9.6333 11.87 18.824 18.809 27.217 8.9933 11.112 19.328 21.134 30.867 28.095v-98.333h-69.45z" fill="url(#k)"/>
 <path d="m218.07 289.71v-34.9c-1.4561 0.53008-2.9579 0.88432-4.5818 0.65846-6.3671-1.2471-11.324-7.5558-15.192-14.157-5.7134-10.837-11.87-21.177-18.809-30.619-8.9933-12.5-19.328-23.776-30.867-31.607v110.62h69.45z" fill="url(#l)"/>
 <path d="m248.93 99.188v25.205c1.4562-0.38289 2.9579-0.63868 4.5818-0.47558 6.3671 0.90074 11.324 5.457 15.192 10.225 5.7133 7.827 11.87 15.294 18.809 22.114 8.9933 9.0281 19.328 17.172 30.867 22.827v-79.896h-69.45z" fill="url(#m)"/>
 <path d="m318.38 289.71v-25.205c-1.4562 0.38287-2.9578 0.63867-4.5818 0.47556-6.3671-0.90073-11.324-5.4569-15.192-10.225-5.7133-7.8271-11.87-15.294-18.809-22.114-8.9933-9.0281-19.328-17.172-30.867-22.827v79.896h69.45z" fill="url(#n)"/>
 <path d="m418.7 289.71v-13.572c-1.4562 0.20612-2.9579 0.34384-4.5818 0.25601-6.3671-0.48496-11.324-2.9384-15.192-5.5056-5.7133-4.2146-11.87-8.2354-18.809-11.908-8.9933-4.8613-19.328-9.2464-30.867-12.292v43.021h69.45z" fill="url(#o)"/>
 <path d="m349.25 197.52v13.572c1.4562-0.20612 2.9578-0.34383 4.5818-0.25601 6.3671 0.48496 11.324 2.9384 15.192 5.5056 5.7133 4.2146 11.87 8.2354 18.809 11.908 8.9933 4.8613 19.328 9.2464 30.867 12.292v-43.021h-69.45z" fill="url(#p)"/>
</svg>
