<?xml version="1.0" encoding="UTF-8"?>
<svg enable-background="new 0 0 316.806 430.409" viewBox="0 0 316.806 430.409" xmlns="http://www.w3.org/2000/svg" fill="#FFFFFF">
 <path d="m200.642,158.11c3.139-.445 3.667-3.499 6.447-4.299 3.865-13.098 3.694-26.502 6.45-39.412 2.313-10.837 7.551-18.445 10.748-29.379 3.253-11.125 4.029-23.047 6.45-36.545 1.533-8.545 4.954-17.062 5.732-25.798 4.287-1.235 6.053-4.646 10.747-4.299 4.235.313 11.081,7.551 12.9,12.182 2.338,5.955 2.757,15.32 2.149,24.364-.506,7.548-2.603,16.932-5.016,26.513-2.226,8.834-2.679,18.122-4.301,27.229-1.958,11.007-3.659,24.29-6.448,35.83-1.106,4.581-1.504,10.135-2.866,16.481-1.735,8.072-3.957,15.13 4.299,17.914 9.868-4.702 10.995-18.145 15.049-28.663 1.973-1.371 3.759-2.93 5.733-4.3 5.391-8.649 11.903-16.081 16.479-25.797 4.427-9.396 7.894-19.365 11.465-30.096 3.628-1.752 4.451-4.349 8.6-4.299 10.618.127 13.052,15.807 10.749,29.379-1.2,7.071-5.681,13.256-6.45,18.631-4.645,3.948-6.533,10.226-9.314,15.766-7.894,15.721-15.71,34.518-24.363,50.877 .56,12.403.117,24.355-2.15,37.977-.637,3.823-2.309,7.183-2.866,10.75-1.003,6.425.05,13.283-.716,19.346-1.189,9.402-3.912,21.988-5.732,32.247-1.271,7.151-2.538,14.556-5.018,20.781-1.688,4.239-5.293,8.09-6.449,12.898-.935,3.886-.641,8.53-1.432,12.898-.696,3.838-1.144,7.713-2.15,11.465-1.933,7.201-6.244,13.93-7.166,20.779-.742,5.522.354,11.645 0,17.2-.291,4.541-1.641,8.946-2.15,13.614-.339,3.126 1.375,8.812-2.866,10.749-1.344-12.563.567-24.829.718-36.546 .096-7.453 4.058-14.98 6.447-22.931 1.891-6.283 2.675-12.378 3.584-18.631 1.496-10.283 3.168-15.042 6.45-22.93 4.622-11.111 6.927-25.308 9.314-40.846 .826-5.373 1.448-9.786 2.151-17.197 1.312-13.87 5.771-27.249 6.447-40.128 .469-8.94-.9-17.011-5.015-24.364-2.748-.131-.26.586-.718,2.149-2.546-.082-2.883-2.372-2.866-5.015-5.543-4.728-12.066-8.476-17.197-13.616-1.498-1.562-2.045.357-4.3,0-.53-3.053-2.903-4.263-4.299-6.449-.362-14.783 7.38-31.407 9.313-50.161 .275-2.659-.341-5.277 0-7.882 .855-6.487 3.399-13.072 4.302-20.064 .497-3.852-.685-8.494 0-12.182 .605-3.264 3.466-6.033 4.298-9.315 .661-2.599.164-6.108.717-9.315 .918-5.314 3.389-14.041 2.866-21.497-.567-8.118-5.341-21.686-13.615-20.781-4.803.526-4.626,5.545-7.881,8.599-3.599,14.671-4.146,28.654-7.166,42.279-1.271,5.732-4.346,14.635-6.45,20.78-.861,2.516-1.009,5.268-2.148,7.882-1.987,4.551-5.233,11.742-6.45,19.348-2.062,12.901-2.113,25.734-7.882,37.979h-4.299c3.671,1.271 8.349,2.829 12.181,4.299 3.717,1.427 8.967,2.338 10.031,6.449-8.945-1.694-16.253-6.764-24.363-7.166-2.186-1.874-4.01-4.11-6.448-5.733-4.759-16.692 2.068-41.972-3.583-60.193 2.228-18.104 1.433-44.195 1.433-65.925 0-9.47 1.138-18.14-3.582-25.08-12.967-8.424-19.108,7.417-20.781,19.348-1.974,14.08-.807,30.215-2.148,46.578-.339,4.108-1.625,8.216-2.151,12.182-.573,4.313-1.545,7.994-2.148,12.182-2.997,20.787 3.179,42.182-.718,60.193 4.611.701 18.202-3.579 20.782,2.866-1.138,2.768-6.209-.483-10.032-.716-5.747-.351-12.201,1.127-17.198,3.583-8.202-.252-9.341-7.262-12.183-15.048-.581-1.589-2.116-2.476-2.866-4.299-.647-1.572-.029-3.983-.718-5.732-1.352-3.45-2.908-6.893-4.299-10.75-1.261-3.499-3.667-6.416-5.015-10.032-1.036-2.778-1.059-6.354-2.151-9.315-2.46-6.677-6.689-13.189-9.314-20.064-1.469-3.844-2.615-7.626-3.584-11.465-1.583-6.275-1.292-14.081-5.015-18.63-5.443-6.653-6.989-18.231-14.331-20.781-8.092-.758-11.396,3.166-10.032,16.481 1.526,14.907 7.936,32.007 10.747,48.009 .763,4.343 1.131,9.254 2.151,13.615 .907,3.88 3.989,7.582 5.015,11.465 .379,1.429-.414,3.069 0,4.299 4.198,12.434 13.383,28.428 15.049,42.995 .586,5.126-1.069,10.159-1.433,15.765-.672,10.323.389,20.75.715,29.381 7.398,1.427 8.917-3.027 12.183-5.733 3.65.306 6.623-.067 7.881-2.151 12.676,2.904 23.76,5.423 33.68,11.465 2.708,1.649 6.36,2.812 9.316,5.018 2.507,1.87 3.946,5.042 6.448,7.165 4.316,3.659 10.62,5.115 13.616,10.748 5.121.851 8.505,3.437 11.465,6.45 4.137.401 8.393.682 8.599,5.015-6.296-.965-11.095-4.293-16.482-7.166-1.845-.983-4.357-1.235-5.732-2.148-1.423-.946-2.086-3.126-3.582-4.299-1.372-1.078-3.606-1.076-5.017-2.151-.705-.538-.701-2.259-1.434-2.866-1.67-1.383-4.357-2.594-6.447-4.299-2.767-2.255-5.438-4.435-8.6-6.448-4.678-2.979-7.513-4.988-13.615-7.166-1.498-.534-3.014-1.723-4.3-2.15-1.254-.418-3.565.447-5.017,0-1.284-.396-1.841-1.945-2.867-2.149-3.515-.703-7.149.177-10.748-.717-3.43,2.305-8.336,3.128-10.75,6.451-1.884.74-4.397.856-7.166.715-5.092,6.64-3.222,13.822-6.448,22.931 6.209-.329 7.696-8.904 12.181-8.599-.096,4.382-4.093,7.571-7.881,10.749-4.379,3.674-7.673,8.341-15.049,7.166-3.182-.508-6.14-4.287-10.032-7.884-3.185-2.94-5.876-6.458-8.599-9.314-6.367-6.681-13.304-11.419-17.913-17.915-1.626-2.29-1.891-5.526-3.584-7.881-.435-.605-1.161.301-1.433-.718-1.023-3.829-7.746-7.168-12.183-10.032-7.211-4.657-12.306-7.133-20.779-7.881-6.053,2.128-11.478,2.837-18.631,2.148-1.872,1.525-3.366,2.06-3.584,4.3-.5,5.127 4.784,4.879 10.032,7.883 4.847,2.773 8.121,7.956 11.465,7.881 1.874,5.292 6.354,7.977 8.599,12.898 4.88,1.774 1.899-4.312 5.733-3.581 2.429,3.183.229,4.713-.716,7.881 2.126.262 3.534,1.242 4.299,2.866 3.033.645.728-4.048 3.582-3.582-.838,8.208 3.873,9.257 7.883,13.614 3.216,3.494 3.938,7.517 7.166,10.032 2.078,12.971 7.652,22.443 15.049,30.096 1.521,2.229 3.193.153 5.015,1.436 9.633,15.924 19.018,32.097 27.947,48.727 8.366,6.92 14.044,16.527 27.23,18.631-2.012,4.405-10.105,1.389-12.898,0 .826,7.271 2.224,13.985 0,22.93-1.175,4.726-3.723,9.736-4.299,15.049-.572,5.271.518,10.45 0,15.047-1.017,9.016-4.061,17.373-7.883,22.931 .42-7.61 3.707-15.689 4.299-25.079 .36-5.662-.601-11.511 0-17.199 .753-7.118 5.352-13.508 5.732-19.347 .165-2.496-1.899-13.813-3.582-17.197-2.536-5.095-9.207-10.139-12.898-15.05-1.845-2.452-3.253-5.845-5.017-8.599-4.905-7.66-10.876-16.324-14.332-26.512-6.121-9.845-17.593-14.608-22.93-25.081-2.111-4.142-1.853-9.051-3.582-13.616-1.298-3.421-3.486-6.758-5.732-10.031-2.174-3.166-5.265-4.826-7.884-7.882-1.901-2.217-2.36-5.302-4.299-7.166-2.529-2.429-7.032-4.28-10.75-6.449-5.165-14.663-21.433-18.22-32.243-27.234 .514-12.861 12.482-14.269 24.363-15.765 5.854,3.7 13.252,2.207 18.631,4.299 3.043,1.184 7.584,4.375 10.748,6.45 8.335,5.464 11.187,11.973 17.2,20.064 7.361,9.904 18.015,18.784 26.512,28.662 3.201.381 5.011,2.155 9.316,1.434 1.735-3.815 4.68-11.437 2.148-15.049 1.097-4.876 3.232-8.712 5.733-12.181-4.139-9.554-1.415-27.74-1.433-41.562 .416-3.043-1.931-3.324-3.582-4.299 .04-2.349 2.039-2.739 1.433-5.732-4.435-15.499-14.124-34.256-17.915-50.877-1.207-5.294-1.09-10.692-2.149-16.481-1.433-7.828-5.878-15.022-7.883-22.93-2.772-10.944-1.895-22.788-5.015-34.396 5.004-3.58 4.815-12.572 12.181-13.616 4.359-.617 7.249,2.136 12.183,3.584 2.924,5.566 7.401,10.067 10.032,15.765 5.169,11.194 5.568,25.381 10.032,37.262 1.171,3.119 3.64,6.103 5.015,9.315 3.031,7.077 4.556,14.67 7.166,21.498 2.558,6.684 6.011,13.771 8.599,20.78 1.048,2.838 2.765,6.761 4.299,10.033 1.625,3.456 1.82,8.393 7.883,6.449 7.418-16.534.112-35.548 1.434-53.744 .407-5.603 2.023-11.529 2.866-17.198 3.141-21.142 3.623-51.072 7.166-73.091 4.573-5.833 8.024-14.782 19.348-12.182 1.654.381 5.945,3.79 7.166,5.733 5.857,9.331 3.351,32.792 3.582,47.294 .149,9.38-1.021,22.302-2.149,30.812-.638,4.817.839,9.568 1.434,13.615 3.362,22.917-2.614,44.584 4.298,60.193zm102.47-68.075c-.008.948-1.256.655-1.433,1.434-4.059,5.17-5.504,11.476-7.884,17.914-2.651,7.18-5.882,16.743-10.031,22.93-2.218,3.307-5.419,5.831-7.882,9.316-1.121,1.585-2.344,3.335-3.584,5.016-1.184,1.604-3.145,3.218-4.299,5.016-4.324,6.734-5.283,15.814-9.314,22.93-1.633,2.88-4.582,4.271-5.018,7.882 6.056,5.649 12.475,10.935 18.631,16.482 2.315-5.895 5.743-11.116 8.6-17.2 2.664-5.674 4.291-12.193 7.165-18.63 1.764-3.948 5.171-6.926 7.166-10.749 2.028-3.884 2.754-8.882 5.017-12.898 1.286-2.283 3.199-3.787 4.3-5.734 4.433-7.846 9.287-21.337 7.881-31.529-.613-4.46-2.375-8.496-5.015-12.182l-4.3.002z" fill-rule="evenodd"/>
 <path d="m189.18 61.372c-4.476-2.45-11.469-2.386-18.631-2.15v-2.149c6.051-1.176 17.978-2.287 18.631 4.299z" fill-rule="evenodd"/>
 <path d="m235.752,71.404c4.283,1.689 10.92,1.022 12.183,5.732-2.831-.428-11.529-.777-12.183-5.732z" fill-rule="evenodd"/>
 <path d="m113.94 80.003c-3.592 3.34-11.141 6.526-17.198 5.016 1.439-4.054 9.522-1.464 11.465-5.016h5.733z" fill-rule="evenodd"/>
 <path d="m187.026,101.5c-.225,2.579-1.949.62-3.582.717-3.386.202-10.508,2.782-12.183-1.433 4.501-.579 12.435-1.857 15.765.716z" fill-rule="evenodd"/>
 <path d="m186.31,108.666c-7.328-2.576-17.245,1.875-21.497-3.583 2.266.729 4.834-.644 7.166-.717 4.948-.154 12.823-.721 14.331,4.3z" fill-rule="evenodd"/>
 <path d="m227.872,107.232c4.86,2.782 14.138,1.148 14.331,8.599-3.704-2.744-8.26-4.64-13.616-5.732-.555-.638-.77-1.619-.715-2.867z" fill-rule="evenodd"/>
 <path d="m223.572,111.532c6.016,1.867 12.983,2.781 17.913,5.732-.435,4.344-6.065.158-7.881-.717-4.524.463-6.15-1.97-10.032-2.149v-2.866z" fill-rule="evenodd"/>
 <path d="m123.97 117.98c-3.936 2.365-13.186 8.948-17.198 4.3 6.194-0.576 11.482-5.604 17.198-4.3z" fill-rule="evenodd"/>
 <path d="m121.1 123.71c-2.455 3.04-6.652 4.334-11.465 5.016 0.625-3.306 7.733-5.967 11.465-5.016z" fill-rule="evenodd"/>
 <path d="m292.363,125.147c1.968,2.572 6.469,2.609 6.45,7.166-3.486-.097-4.156-3.01-7.166-3.583-.229-1.661.114-2.751.716-3.583z" fill-rule="evenodd"/>
 <path d="m187.026,155.244c-5.412-.797-10.394-2.026-17.197-1.433-.859-.941-.279-1.127 0-2.149 4.259.295 15.424-2.614 17.197,3.582z" fill-rule="evenodd"/>
 <path d="m285.915,162.41c-3.671-3.497-8.455-5.876-11.465-10.032 4.214.196 11.33,3.395 11.465,10.032z" fill-rule="evenodd"/>
 <path d="m231.45 168.14c-3.316-5.761-14.105-4.049-17.914-9.315 5.094 1.188 18.733-0.158 17.914 9.315z" fill-rule="evenodd"/>
 <path d="m142.599,163.843c-.177,2.941-2.396,1.052-3.584,1.433-6.099,1.955-11.322,8.459-18.631,6.449 4.287-4.552 12.357-5.32 17.198-9.315 1.281.869 4.17.13 5.017,1.433z" fill-rule="evenodd"/>
 <path d="m151.197,163.126c5.104,5.445 21.616,3.174 20.782,12.182-5.974-5.67-15.403-3.609-21.499-9.315-.302-1.498.493-1.899.717-2.867z" fill-rule="evenodd"/>
 <path d="m258.68 181.76c5.622 2.261 11.936 3.83 12.181 11.467-1.515-1.831-4.438-2.249-5.015-5.017-3.024-1.514-5.941-3.137-7.166-6.45z" fill-rule="evenodd"/>
 <path d="m255.101,241.95c-4.607-2.082-8.676-4.701-11.465-8.599-5.053-1.924-9.791-5.101-15.765-7.166-2.98-1.031-6.417-1.175-9.316-2.15-5.498-1.85-9.98-5.685-15.047-7.882-2.544-1.102-5.465-1.162-7.884-2.15-2.371-.969-4.008-2.508-6.448-3.582-7.689-3.382-16.879-3.96-25.081-6.45-.135-.581-.72-.713-.715-1.433-.265-1.219.557-1.352 1.433-1.433 3.844-.262 6.093,1.073 7.882,2.866 8.609-1.737 16.873,5.094 24.363,7.166 .861.239 2.038-.32 2.866,0 .734.285 1.044,1.976 1.433,2.151 .992.443 2.596-.456 3.584,0 2.989,1.379 5.539,3.889 7.882,5.733 8.64,1.392 15.388,4.676 23.647,6.447 5.322,6.381 16.205,7.2 18.631,16.482z" fill-rule="evenodd"/>
 <path d="m165.529,344.42c2.275-2.975 5.366-4.387 6.45-7.884 .728-2.348.609-6.782.716-9.314 .438-10.462-1.638-22.062-.716-32.246-1.668-2.596-1.901-6.086-1.434-10.75 .005-.056 1.305,1.496.716,2.151 2.113-2.354 1.02-15.499.718-17.916-.229-1.817-1.764-3.689-2.15-5.732-.318-1.683.355-3.599 0-5.015-3.572-14.238-13.182-25.869-23.648-29.381 .618-2.404 7.251-1.029 10.032.718 3.241,2.032 4.853,7.728 8.601,7.882 3.569,6.94 5.577,15.441 9.314,22.215-1.171,4.91 1.059,9.538 1.434,15.047 .584,8.58-1.093,18.431-.716,29.38 .272,7.975 1.88,15.943 1.434,22.931-.417,6.468-2.633,20.409-10.751,17.914z" fill-rule="evenodd"/>
 <path d="m230.02,360.185c-.197,2.43-3.648,1.605-4.3,3.582-6.333-.289-12.105.391-17.913,0-3.938-.265-7.66-2.032-11.465-2.149-3.176-.098-7.049,1.927-10.75,2.149-1.186.072-2.5-.854-3.581-.716-7.7.976-13.171,2.305-21.497,2.148-8.189-.151-16.9,2.899-20.782-3.582 1.45-2.198 4.255.46 5.732.716 7.767,1.356 18.926-.154 26.514-1.434 5.053-.851 11.02-.582 15.765-1.433 11.297-2.024 24.947,3.453 35.11,2.15 2.622-.335 4.286-2.161 7.167-1.431z" fill-rule="evenodd"/>
 <path d="m129.7 361.62c6.219 5.298 17.175 7.871 26.512 7.882-1.978 3.268-7.667 2.654-11.465 2.15-6.687-0.888-14.431-3.934-15.047-10.032z" fill-rule="evenodd"/>
 <path d="m209.241,373.083c-.887,2.693-7.241,1.291-9.316.715 1.073-4.703 6.025-1.57 9.316-.715z" fill-rule="evenodd"/>
 <path d="m179.145,375.232c.232,2.594-2.733,1.125-4.3,1.433-2.644.521-5.979,2.271-7.883.718 .87-3.447 9.036-3.366 12.183-2.151z" fill-rule="evenodd"/>
 <path d="m208.523,378.098c-.972,2.095-4.204,1.134-5.732,0-1.876.784-4.651,2.296-5.732-.716 3.013-1.52 8.263.119 11.464.716z" fill-rule="evenodd"/>
 <path d="m177.71 378.82c-1.053 2.531-5.466 1.699-8.599 2.148 0.124-3.457 5.4-1.765 8.599-2.148z" fill-rule="evenodd"/>
 <path d="m207.09 382.4c-4.19-0.512-4.894-0.191-9.313 0 0.241-2.969 9.143-3.361 9.313 0z" fill-rule="evenodd"/>
 <path d="m176.994,385.264c-2.81,1.048-5.891.709-9.314,1.435-.4-4.164 7.81-3.445 9.314-1.435z" fill-rule="evenodd"/>
 <path d="m205.657,387.415c-3.308-.262-4.123-.882-7.166,0 .482-2.646 6.299-3.093 7.166,0z" fill-rule="evenodd"/>
 <path d="m174.13 392.43c-0.357 2.446-5.298 1.063-5.015-1.435 1.96-1.873 3.056 1.157 5.015 1.435z" fill-rule="evenodd"/>
 <path d="m199.208,391.714c2.553-.165 3.746,1.029 3.582,3.583-1.98-.409-4.018-.758-3.582-3.583z" fill-rule="evenodd"/>
</svg>
